<svg xmlns="http://www.w3.org/2000/svg" viewBox="0 0 512 512">
  <rect width="512" height="512" rx="112" fill="#FBF7F0"/>
  <g transform="translate(256 270) rotate(-10)">
    <rect x="-120" y="-150" width="240" height="290" rx="10" fill="#ffffff" stroke="#1a1a1a" stroke-width="6"/>
    <rect x="-96" y="-126" width="192" height="192" fill="#F3D9B1"/>
    <circle cx="40" cy="-60" r="22" fill="#FFD166"/>
    <path d="M-96 66 L-20 -10 L30 40 L96 -30 L96 66 Z" fill="#6FB28A"/>
  </g>
  <g transform="translate(256 256) rotate(7)">
    <rect x="-120" y="-150" width="240" height="290" rx="10" fill="#ffffff" stroke="#1a1a1a" stroke-width="6"/>
    <rect x="-96" y="-126" width="192" height="192" fill="#FF5A3C"/>
    <path d="M-40 -50 L-10 -10 L40 -30 L20 30 L-50 20 Z" fill="#FBF7F0" opacity="0.35"/>
    <path d="M0 86 l10.5 21.3 23.5 3.4-17 16.6 4 23.4L0 139.6l-21 11.1 4-23.4-17-16.6 23.5-3.4z" fill="#1a1a1a"/>
  </g>
</svg>
